<svg xmlns="http://www.w3.org/2000/svg" version="1.1" xmlns:xlink="http://www.w3.org/1999/xlink" xmlns:svgjs="http://svgjs.dev/svgjs" width="1000" height="186" viewBox="0 0 1000 186"><g transform="matrix(1,0,0,1,-0.6060606060606233,-0.010686081183450824)"><svg viewBox="0 0 396 74" data-background-color="#ffffff" preserveAspectRatio="xMidYMid meet" height="186" width="1000" xmlns="http://www.w3.org/2000/svg" xmlns:xlink="http://www.w3.org/1999/xlink"><g id="tight-bounds" transform="matrix(1,0,0,1,0.2400000000000091,0.004251451653630056)"><svg viewBox="0 0 395.52 73.99149709669275" height="73.99149709669275" width="395.52"><g><svg viewBox="0 0 395.52 73.99149709669275" height="73.99149709669275" width="395.52"><g><svg viewBox="0 0 395.52 73.99149709669275" height="73.99149709669275" width="395.52"><g id="textblocktransform"><svg viewBox="0 0 395.52 73.99149709669275" height="73.99149709669275" width="395.52" id="textblock"><g><svg viewBox="0 0 395.52 73.99149709669275" height="73.99149709669275" width="395.52"><g transform="matrix(1,0,0,1,0,0)"><svg width="395.52" viewBox="1.25 -36.35 198.04 37.050000000000004" height="73.99149709669275" data-palette-color="#000000"><path d="M10.5-10.25L10.5-10.25Q10.5-6.8 15.48-6.8 20.45-6.8 20.45-9.9L20.45-9.9Q20.45-11.55 18.75-12.6 17.05-13.65 14.63-14.35 12.2-15.05 9.78-15.98 7.35-16.9 5.65-18.88 3.95-20.85 3.95-23.8L3.95-23.8Q3.95-36.35 20.1-36.35L20.1-36.35Q26-36.35 29.03-34.13 32.05-31.9 32.05-27.95L32.05-27.95Q32.05-26.5 31.68-25.18 31.3-23.85 30.9-23.3L30.9-23.3 30.5-22.7 21.65-22.7Q22.75-23.85 22.75-25.6L22.75-25.6Q22.75-28.85 18.5-28.85L18.5-28.85Q13.15-28.85 13.15-25.45L13.15-25.45Q13.15-23.75 14.85-22.75 16.55-21.75 18.98-21.18 21.4-20.6 23.85-19.75 26.3-18.9 28-16.93 29.7-14.95 29.7-11.8L29.7-11.8Q29.7-5.45 25.9-2.38 22.1 0.7 14.2 0.7 6.3 0.7 3.4-2.1L3.4-2.1Q1.25-4.2 1.25-7.9L1.25-7.9Q1.25-9.3 1.55-10.95L1.55-10.95 1.7-11.75 10.7-11.75 10.6-11.15Q10.5-10.65 10.5-10.25ZM58.45-36L67.45-36 61.15 0 52.1 0 54.4-13 44.65-13 42.4 0 33.35 0 39.7-36 48.7-36 46-20.8 55.75-20.8 58.45-36ZM87.65-36.35L87.65-36.35Q99.7-36.35 99.7-26.5L99.7-26.5Q99.7-24.85 99.34-22.95L99.34-22.95 97.59-12.95Q96.4-6 92.4-2.65 88.4 0.7 81.15 0.7 73.9 0.7 71.05-2.65L71.05-2.65Q69.09-4.95 69.09-9L69.09-9Q69.09-10.8 69.5-12.95L69.5-12.95 71.25-22.95Q73.59-36.35 87.65-36.35ZM82.5-7.05L82.5-7.05Q85-7.05 86.5-8.35 88-9.65 88.59-13.15L88.59-13.15 90.3-22.75Q90.45-23.75 90.45-24.55L90.45-24.55Q90.45-28.6 86.34-28.6L86.34-28.6Q81.2-28.5 80.2-22.75L80.2-22.75 78.5-13.15Q78.3-11.9 78.3-10.55L78.3-10.55Q78.3-7.05 82.5-7.05ZM118.29-10.95L118.29-10.95 112.34-10.95 110.39 0 101.39 0 107.74-36 122.99-36Q128.64-36 131.04-33.4L131.04-33.4Q132.79-31.4 132.79-28.3L132.79-28.3Q132.79-27.25 132.59-26.1L132.59-26.1 131.59-20.45Q130.84-16.3 127.19-13.63 123.54-10.95 118.29-10.95ZM119.84-28.2L119.84-28.2 115.34-28.2 113.69-18.75 118.14-18.75Q122.24-18.75 122.89-22.4L122.89-22.4 123.24-24.45Q123.34-24.9 123.34-25.65 123.34-26.4 122.59-27.3 121.84-28.2 119.84-28.2ZM150.19-10.95L150.19-10.95 144.24-10.95 142.29 0 133.29 0 139.64-36 154.89-36Q160.54-36 162.94-33.4L162.94-33.4Q164.69-31.4 164.69-28.3L164.69-28.3Q164.69-27.25 164.49-26.1L164.49-26.1 163.49-20.45Q162.74-16.3 159.09-13.63 155.44-10.95 150.19-10.95ZM151.74-28.2L151.74-28.2 147.24-28.2 145.59-18.75 150.04-18.75Q154.14-18.75 154.79-22.4L154.79-22.4 155.14-24.45Q155.24-24.9 155.24-25.65 155.24-26.4 154.49-27.3 153.74-28.2 151.74-28.2ZM180.69-23.35L181.84-23.35 190.29-36 199.29-36 183.89-13.85 181.44 0 172.39 0 174.84-13.85 167.24-36 176.79-36 180.69-23.35Z" opacity="1" transform="matrix(1,0,0,1,0,0)" fill="#000000" class="wordmark-text-0" data-fill-palette-color="primary" id="text-0"></path></svg></g></svg></g></svg></g></svg></g></svg></g><defs></defs></svg><rect width="395.52" height="73.99149709669275" fill="none" stroke="none" visibility="hidden"></rect></g></svg></g></svg>